<?xml version="1.0" encoding="utf-8"?>
<!-- Generator: Adobe Illustrator 25.2.0, SVG Export Plug-In . SVG Version: 6.00 Build 0)  -->
<svg version="1.1" id="Layer_1" xmlns="http://www.w3.org/2000/svg" xmlns:xlink="http://www.w3.org/1999/xlink" x="0px" y="0px"
	 viewBox="0 0 7007 7130.5" style="enable-background:new 0 0 7007 7130.5;" xml:space="preserve">
<style type="text/css">
	.st0{fill:#A08C77;}
</style>
<g>
	<path class="st0" d="M132.9,45L68.1,0.3c-0.6-0.4-1.4-0.4-2,0L1.1,45C0.4,45.5,0,46.5,0,47.5c0,1,0.4,2,1.1,2.5l18.3,12.6v35.2h4.3
		V65.5l6.5,4.5v17c-3.7,1.2-6.5,5.6-6.5,10.8c0,2.6,0.7,4.9,1.8,6.8c-1.2,5.2-1.8,10.6-1.8,16v7.9c0,1.1,0.5,2,1.2,2.5l2.4,1.5
		c1.6,1,3.3,1.5,5.1,1.5c1.7,0,3.5-0.5,5.1-1.5l2.4-1.5c0.7-0.5,1.2-1.4,1.2-2.5v-7.9c0-5.4-0.6-10.8-1.8-16
		c1.1-1.9,1.8-4.2,1.8-6.8c0-5.2-2.8-9.5-6.5-10.8V73L66,94.6c0.3,0.2,0.7,0.3,1,0.3c0.4,0,0.7-0.1,1-0.3l42.2-29.1v30.8
		c-12,11.7-26.9,18.1-42,18.1h-2.6c-7.4,0-14.8-1.5-21.8-4.5l-1.4,5.3c7.5,3.2,15.3,4.8,23.2,4.8h2.6c16.4,0,32.5-7.2,45.4-20.1
		c0.5-0.5,0.8-1.3,0.8-2.2V62.6l18.3-12.6c0.7-0.5,1.1-1.4,1.1-2.5C134.1,46.5,133.6,45.5,132.9,45z M36.8,126.8l-1.2,0.8
		c-1.9,1.2-4.3,1.2-6.3,0l-1.2-0.8v-6.2c0-4.2,0.4-8.4,1.2-12.4c1,0.5,2,0.8,3.1,0.8s2.2-0.3,3.1-0.8c0.8,4.1,1.2,8.2,1.2,12.4
		V126.8z M36.8,97.8c0,3.1-1.9,5.6-4.3,5.6s-4.3-2.5-4.3-5.6c0-3.1,1.9-5.6,4.3-5.6C34.8,92.2,36.8,94.7,36.8,97.8z M67,89
		L36.1,67.7l26.8-18.5c1.2,0.6,2.6,1,4.2,1c4.9,0,8.6-3.7,8.6-8.4s-3.8-8.4-8.6-8.4s-8.6,3.7-8.6,8.4c0,1.3,0.3,2.5,0.8,3.5
		L31.5,64.5l-24.7-17L67,6l60.3,41.5L67,89z M62.7,41.9c0-1.1,1.7-2.8,4.3-2.8s4.3,1.7,4.3,2.8c0,1.1-1.7,2.8-4.3,2.8
		S62.7,43,62.7,41.9z"/>
</g>
</svg>
